#define PlayForward.bm_width 20
#define PlayForward.bm_height 20
static char PlayForward.bm_bits[] = {
   0xff, 0xff, 0x0f, 0xff, 0xff, 0x0f, 0xff, 0xff, 0x0f, 0x87, 0xff, 0x0f,
   0x07, 0xfe, 0x0f, 0x67, 0xf8, 0x0f, 0xe7, 0xe1, 0x0f, 0xe7, 0x87, 0x0f,
   0xe7, 0x1f, 0x0e, 0xe7, 0x7f, 0x0c, 0xe7, 0x7f, 0x0c, 0xe7, 0x1f, 0x0e,
   0xe7, 0x87, 0x0f, 0xe7, 0xe1, 0x0f, 0x67, 0xf8, 0x0f, 0x07, 0xfe, 0x0f,
   0x87, 0xff, 0x0f, 0xff, 0xff, 0x0f, 0xff, 0xff, 0x0f, 0xff, 0xff, 0x0f};
