#define PlayRewind.bm_width 20
#define PlayRewind.bm_height 20
static char PlayRewind.bm_bits[] = {
   0xff, 0xff, 0x0f, 0xff, 0xff, 0x0f, 0xff, 0xff, 0x0f, 0xff, 0x1f, 0x0e,
   0xff, 0x07, 0x0e, 0xff, 0x61, 0x0e, 0x7f, 0x78, 0x0e, 0x1f, 0x7e, 0x0e,
   0x87, 0x7f, 0x0e, 0xe3, 0x7f, 0x0e, 0xe3, 0x7f, 0x0e, 0x87, 0x7f, 0x0e,
   0x1f, 0x7e, 0x0e, 0x7f, 0x78, 0x0e, 0xff, 0x61, 0x0e, 0xff, 0x07, 0x0e,
   0xff, 0x1f, 0x0e, 0xff, 0xff, 0x0f, 0xff, 0xff, 0x0f, 0xff, 0xff, 0x0f};
