#define Rew.bm_width 20
#define Rew.bm_height 20
static char Rew.bm_bits[] = {
   0xff, 0xff, 0x0f, 0xff, 0xff, 0x0f, 0xff, 0xff, 0x0f, 0xff, 0xfd, 0x0e,
   0xff, 0x7c, 0x0e, 0x7f, 0x3e, 0x0f, 0x3f, 0x9f, 0x0f, 0x9f, 0xcf, 0x0f,
   0xcf, 0xe7, 0x0f, 0xe7, 0xf3, 0x0f, 0xe7, 0xf3, 0x0f, 0xcf, 0xe7, 0x0f,
   0x9f, 0xcf, 0x0f, 0x3f, 0x9f, 0x0f, 0x7f, 0x3e, 0x0f, 0xff, 0x7c, 0x0e,
   0xff, 0xfd, 0x0e, 0xff, 0xff, 0x0f, 0xff, 0xff, 0x0f, 0xff, 0xff, 0x0f};
