#define SFor.bm_width 20
#define SFor.bm_height 20
static char SFor.bm_bits[] = {
   0xff, 0xff, 0x0f, 0xff, 0xff, 0x0f, 0xff, 0xff, 0x0f, 0x7f, 0xff, 0x0f,
   0x7f, 0xfe, 0x0f, 0xff, 0xfc, 0x0f, 0xff, 0xf9, 0x0f, 0xff, 0xf3, 0x0f,
   0xff, 0xe7, 0x0f, 0xff, 0xcf, 0x0f, 0xff, 0xcf, 0x0f, 0xff, 0xe7, 0x0f,
   0xff, 0xf3, 0x0f, 0xff, 0xf9, 0x0f, 0xff, 0xfc, 0x0f, 0x7f, 0xfe, 0x0f,
   0x7f, 0xff, 0x0f, 0xff, 0xff, 0x0f, 0xff, 0xff, 0x0f, 0xff, 0xff, 0x0f};
