#define SRew.bm_width 20
#define SRew.bm_height 20
static char SRew.bm_bits[] = {
   0xff, 0xff, 0x0f, 0xff, 0xff, 0x0f, 0xff, 0xff, 0x0f, 0xff, 0xdf, 0x0f,
   0xff, 0xcf, 0x0f, 0xff, 0xe7, 0x0f, 0xff, 0xf3, 0x0f, 0xff, 0xf9, 0x0f,
   0xff, 0xfc, 0x0f, 0x7f, 0xfe, 0x0f, 0x7f, 0xfe, 0x0f, 0xff, 0xfc, 0x0f,
   0xff, 0xf9, 0x0f, 0xff, 0xf3, 0x0f, 0xff, 0xe7, 0x0f, 0xff, 0xcf, 0x0f,
   0xff, 0xdf, 0x0f, 0xff, 0xff, 0x0f, 0xff, 0xff, 0x0f, 0xff, 0xff, 0x0f};
