#define Stop.bm_width 20
#define Stop.bm_height 20
static char Stop.bm_bits[] = {
   0xff, 0xff, 0x0f, 0xff, 0xff, 0x0f, 0xff, 0xff, 0x0f, 0xff, 0xff, 0x0f,
   0x0f, 0x00, 0x0f, 0x0f, 0x00, 0x0f, 0xcf, 0x3f, 0x0f, 0xcf, 0x3f, 0x0f,
   0xcf, 0x3f, 0x0f, 0xcf, 0x3f, 0x0f, 0xcf, 0x3f, 0x0f, 0xcf, 0x3f, 0x0f,
   0xcf, 0x3f, 0x0f, 0xcf, 0x3f, 0x0f, 0x0f, 0x00, 0x0f, 0x0f, 0x00, 0x0f,
   0xff, 0xff, 0x0f, 0xff, 0xff, 0x0f, 0xff, 0xff, 0x0f, 0xff, 0xff, 0x0f};
